<mxfile host="app.diagrams.net" modified="2022-04-18T04:50:00.569Z" agent="5.0 (Windows)" etag="i91lZQq3WtrRwzCrR4Tg" version="17.4.5" type="github">
  <diagram id="mXFmf4sekwMXwLJb2Xkd" name="Page-1">
    <mxGraphModel dx="1242" dy="214" grid="1" gridSize="10" guides="1" tooltips="1" connect="1" arrows="1" fold="1" page="1" pageScale="1" pageWidth="827" pageHeight="1169" math="0" shadow="0">
      <root>
        <mxCell id="0" />
        <mxCell id="1" parent="0" />
        <mxCell id="DFJwqUsAeEYb7wWI-uJj-7" style="edgeStyle=orthogonalEdgeStyle;rounded=0;orthogonalLoop=1;jettySize=auto;html=1;exitX=0.75;exitY=1;exitDx=0;exitDy=0;entryX=1;entryY=0.25;entryDx=0;entryDy=0;fontSize=8;" edge="1" parent="1" source="DFJwqUsAeEYb7wWI-uJj-1" target="DFJwqUsAeEYb7wWI-uJj-5">
          <mxGeometry relative="1" as="geometry" />
        </mxCell>
        <mxCell id="DFJwqUsAeEYb7wWI-uJj-8" style="edgeStyle=orthogonalEdgeStyle;rounded=0;orthogonalLoop=1;jettySize=auto;html=1;exitX=1;exitY=1;exitDx=0;exitDy=0;entryX=1;entryY=0.75;entryDx=0;entryDy=0;fontSize=8;" edge="1" parent="1" source="DFJwqUsAeEYb7wWI-uJj-1" target="DFJwqUsAeEYb7wWI-uJj-5">
          <mxGeometry relative="1" as="geometry" />
        </mxCell>
        <mxCell id="DFJwqUsAeEYb7wWI-uJj-11" style="edgeStyle=orthogonalEdgeStyle;rounded=0;orthogonalLoop=1;jettySize=auto;html=1;exitX=0.5;exitY=1;exitDx=0;exitDy=0;entryX=1.003;entryY=0.104;entryDx=0;entryDy=0;entryPerimeter=0;fontSize=8;" edge="1" parent="1" source="DFJwqUsAeEYb7wWI-uJj-1" target="DFJwqUsAeEYb7wWI-uJj-5">
          <mxGeometry relative="1" as="geometry" />
        </mxCell>
        <mxCell id="DFJwqUsAeEYb7wWI-uJj-1" value="1024bytes" style="rounded=0;whiteSpace=wrap;html=1;" vertex="1" parent="1">
          <mxGeometry x="70" y="140" width="120" height="60" as="geometry" />
        </mxCell>
        <mxCell id="DFJwqUsAeEYb7wWI-uJj-2" value="&lt;div&gt;&lt;font style=&quot;font-size: 8px&quot;&gt;byte[] buffer = new byte[300];&lt;br&gt;&lt;/font&gt;&lt;/div&gt;&lt;div&gt;&lt;font style=&quot;font-size: 8px&quot;&gt;int len;&lt;/font&gt;&lt;/div&gt;&lt;font style=&quot;font-size: 8px&quot;&gt;&amp;nbsp;&amp;nbsp;&amp;nbsp;&amp;nbsp;&amp;nbsp;&amp;nbsp;&amp;nbsp; while((len = is.read(buffer)) != -1){&lt;br&gt;&amp;nbsp;&amp;nbsp;&amp;nbsp;&amp;nbsp;&amp;nbsp;&amp;nbsp;&amp;nbsp;&amp;nbsp;&amp;nbsp;&amp;nbsp;&amp;nbsp; os.write(buffer, 0, len);&lt;br&gt;&amp;nbsp;&amp;nbsp;&amp;nbsp;&amp;nbsp;&amp;nbsp;&amp;nbsp;&amp;nbsp; }&lt;/font&gt;" style="text;html=1;align=center;verticalAlign=middle;resizable=0;points=[];autosize=1;strokeColor=none;fillColor=none;" vertex="1" parent="1">
          <mxGeometry x="50" y="10" width="160" height="90" as="geometry" />
        </mxCell>
        <mxCell id="DFJwqUsAeEYb7wWI-uJj-4" value="&lt;div style=&quot;font-size: 7px&quot; align=&quot;left&quot;&gt;&lt;font style=&quot;font-size: 7px&quot;&gt;为什么使用len方式读取字节流?&lt;/font&gt;&lt;/div&gt;&lt;div style=&quot;font-size: 7px&quot; align=&quot;left&quot;&gt;&lt;font style=&quot;font-size: 7px&quot;&gt;定义一个byte类型的数组，每次都是输入流都是读取的是300个字节的数据，&lt;/font&gt;&lt;/div&gt;&lt;div style=&quot;font-size: 7px&quot; align=&quot;left&quot;&gt;&lt;font style=&quot;font-size: 7px&quot;&gt;假定数据大小为1024bytes，前三次每次都是读取的300个字节，最后一次只用读取124bytes，如果使用&lt;/font&gt;&lt;/div&gt;&lt;div style=&quot;font-size: 7px&quot; align=&quot;left&quot;&gt;&lt;font style=&quot;font-size: 7px&quot;&gt;byte[]数组读取就读不到最后124个byte，而用len方法解决了这种弊端&lt;br&gt;&lt;/font&gt;&lt;/div&gt;" style="text;html=1;align=right;verticalAlign=middle;resizable=0;points=[];autosize=1;strokeColor=none;fillColor=none;fontSize=8;" vertex="1" parent="1">
          <mxGeometry x="-10" y="85" width="340" height="50" as="geometry" />
        </mxCell>
        <mxCell id="DFJwqUsAeEYb7wWI-uJj-5" value="300" style="rounded=0;whiteSpace=wrap;html=1;fontSize=8;" vertex="1" parent="1">
          <mxGeometry x="50" y="260" width="60" height="50" as="geometry" />
        </mxCell>
        <mxCell id="DFJwqUsAeEYb7wWI-uJj-6" value="buffer" style="text;html=1;align=center;verticalAlign=middle;resizable=0;points=[];autosize=1;strokeColor=none;fillColor=none;fontSize=8;" vertex="1" parent="1">
          <mxGeometry x="80" y="200" width="40" height="20" as="geometry" />
        </mxCell>
        <mxCell id="DFJwqUsAeEYb7wWI-uJj-12" value="300" style="text;html=1;align=center;verticalAlign=middle;resizable=0;points=[];autosize=1;strokeColor=none;fillColor=none;fontSize=8;" vertex="1" parent="1">
          <mxGeometry x="105" y="220" width="30" height="20" as="geometry" />
        </mxCell>
        <mxCell id="DFJwqUsAeEYb7wWI-uJj-13" value="300" style="text;html=1;align=center;verticalAlign=middle;resizable=0;points=[];autosize=1;strokeColor=none;fillColor=none;fontSize=8;" vertex="1" parent="1">
          <mxGeometry x="135" y="240" width="30" height="20" as="geometry" />
        </mxCell>
        <mxCell id="DFJwqUsAeEYb7wWI-uJj-14" value="300" style="text;html=1;align=center;verticalAlign=middle;resizable=0;points=[];autosize=1;strokeColor=none;fillColor=none;fontSize=8;" vertex="1" parent="1">
          <mxGeometry x="165" y="250" width="30" height="20" as="geometry" />
        </mxCell>
      </root>
    </mxGraphModel>
  </diagram>
</mxfile>
